<svg width="32" height="32" viewBox="0 0 32 32" fill="none" xmlns="http://www.w3.org/2000/svg">
<path d="M16.0001 0C7.16806 0 6.10352e-05 7.168 6.10352e-05 16C6.10352e-05 24.832 7.16806 32 16.0001 32C24.8321 32 32.0001 24.832 32.0001 16C32.0001 7.168 24.8321 0 16.0001 0ZM16.0001 4.8C18.6561 4.8 20.8001 6.944 20.8001 9.6C20.8001 12.256 18.6561 14.4 16.0001 14.4C13.3441 14.4 11.2001 12.256 11.2001 9.6C11.2001 6.944 13.3441 4.8 16.0001 4.8ZM16.0001 27.52C12.0001 27.52 8.46406 25.472 6.40006 22.368C6.44806 19.184 12.8001 17.44 16.0001 17.44C19.1841 17.44 25.5521 19.184 25.6001 22.368C23.5361 25.472 20.0001 27.52 16.0001 27.52Z" fill="#3E4149"/>
</svg>
